<svg width="500" height="300" viewBox="0 0 500 300" fill="none" xmlns="http://www.w3.org/2000/svg">
<g clip-path="url(#clip0_2102_4)">
<path d="M531.988 1115.82C479.354 1106.35 369.921 1068.71 353.277 993.884C336.631 919.063 98.7371 1001.89 -18.1315 1052.66L13.0837 389.137C107.405 361.523 294.951 288.84 290.585 219.025C285.126 131.754 332.161 119.458 411.97 132.885C491.781 146.313 481.665 115.214 522.441 101.865" stroke="#CA592E" stroke-opacity="0.4" stroke-width="5" stroke-miterlimit="10"/>
<path d="M452.091 1019.03C399.457 1009.57 290.024 971.924 273.38 897.103C256.735 822.281 18.8402 905.11 -98.0283 955.875L-66.8131 292.355C27.5078 264.741 215.054 192.058 210.688 122.243C205.229 34.9722 252.264 22.6761 332.073 36.1026C411.884 49.5309 401.768 18.4316 442.544 5.08255" stroke="#CA592E" stroke-opacity="0.4" stroke-width="5" stroke-miterlimit="10"/>
</g>
<defs>
<clipPath id="clip0_2102_4">
<rect width="500" height="300" fill="white"/>
</clipPath>
</defs>
</svg>
